<svg xmlns="http://www.w3.org/2000/svg" xmlns:xlink="http://www.w3.org/1999/xlink" width="6000" zoomAndPan="magnify" viewBox="0 0 4500 2250.000011" height="3000" preserveAspectRatio="xMidYMid meet" version="1.0"><defs><g/><clipPath id="04129d8547"><path d="M 63.871094 895.054688 L 4498 895.054688 L 4498 1362 L 63.871094 1362 Z M 63.871094 895.054688 " clip-rule="nonzero"/></clipPath></defs><g fill="#231f20" fill-opacity="1"><g transform="translate(23.457109, 2175.702228)"><g><path d="M 1901.96875 -2125.578125 L 1979.265625 -2125.578125 L 2004.109375 -1490.65625 L 1901.96875 -1490.65625 C 1861.488281 -1652.601562 1783.273438 -1779.582031 1667.328125 -1871.59375 C 1551.390625 -1963.613281 1411.523438 -2009.625 1247.734375 -2009.625 C 1135.472656 -2009.625 1035.175781 -1987.539062 946.84375 -1943.375 C 858.507812 -1899.207031 783.976562 -1835.71875 723.25 -1752.90625 C 662.519531 -1670.09375 616.050781 -1568.875 583.84375 -1449.25 C 551.632812 -1329.632812 535.53125 -1194.375 535.53125 -1043.46875 C 535.53125 -747.175781 597.179688 -519.4375 720.484375 -360.25 C 843.785156 -201.0625 1022.296875 -121.46875 1256.015625 -121.46875 C 1611.203125 -121.46875 1839.40625 -310.097656 1940.625 -687.359375 L 2053.796875 -687.359375 L 2053.796875 0 L 1957.1875 0 L 1893.6875 -218.078125 C 1700.457031 -54.285156 1466.738281 27.609375 1192.53125 27.609375 C 1036.101562 27.609375 894.859375 2.765625 768.796875 -46.921875 C 642.734375 -96.617188 535.070312 -167.015625 445.8125 -258.109375 C 356.5625 -349.203125 287.550781 -460.078125 238.78125 -590.734375 C 190.007812 -721.398438 165.625 -866.789062 165.625 -1026.90625 C 165.625 -1194.375 191.390625 -1347.117188 242.921875 -1485.140625 C 294.453125 -1623.160156 366.6875 -1741.859375 459.625 -1841.234375 C 552.5625 -1940.617188 663.898438 -2017.453125 793.640625 -2071.734375 C 923.378906 -2126.023438 1066.460938 -2153.171875 1222.890625 -2153.171875 C 1333.316406 -2153.171875 1437.296875 -2137.53125 1534.828125 -2106.25 C 1632.367188 -2074.96875 1738.1875 -2024.359375 1852.28125 -1954.421875 Z M 1901.96875 -2125.578125 "/></g></g></g><g fill="#231f20" fill-opacity="1"><g transform="translate(2099.278323, 2175.702228)"><g><path d="M 104.890625 0 L 104.890625 -104.890625 C 174.828125 -106.734375 231.421875 -111.796875 274.671875 -120.078125 C 317.921875 -128.359375 351.503906 -144 375.421875 -167 C 399.347656 -190.007812 415.453125 -221.296875 423.734375 -260.859375 C 432.015625 -300.429688 436.15625 -353.34375 436.15625 -419.59375 L 436.15625 -1705.984375 C 436.15625 -1770.390625 432.929688 -1822.375 426.484375 -1861.9375 C 420.046875 -1901.507812 407.164062 -1932.796875 387.84375 -1955.796875 C 368.519531 -1978.804688 340.453125 -1994.453125 303.640625 -2002.734375 C 266.835938 -2011.015625 218.992188 -2016.992188 160.109375 -2020.671875 L 160.109375 -2125.578125 L 1129.03125 -2125.578125 C 1294.664062 -2125.578125 1447.875 -2097.96875 1588.65625 -2042.75 C 1729.4375 -1987.539062 1850.894531 -1911.164062 1953.03125 -1813.625 C 2055.175781 -1716.09375 2134.773438 -1600.15625 2191.828125 -1465.8125 C 2248.878906 -1331.46875 2277.40625 -1185.164062 2277.40625 -1026.90625 C 2277.40625 -876 2250.71875 -737.515625 2197.34375 -611.453125 C 2143.976562 -485.390625 2068.984375 -377.269531 1972.359375 -287.09375 C 1875.742188 -196.914062 1760.265625 -126.519531 1625.921875 -75.90625 C 1491.578125 -25.300781 1344.351562 0 1184.25 0 Z M 772.9375 -1990.3125 C 741.644531 -1990.3125 726 -1974.664062 726 -1943.375 L 726 -449.953125 C 726 -240.160156 863.101562 -135.265625 1137.3125 -135.265625 C 1389.4375 -135.265625 1582.671875 -210.253906 1717.015625 -360.234375 C 1851.359375 -510.222656 1918.53125 -730.601562 1918.53125 -1021.375 C 1918.53125 -1174.125 1900.128906 -1310.304688 1863.328125 -1429.921875 C 1826.523438 -1549.546875 1773.613281 -1650.765625 1704.59375 -1733.578125 C 1635.582031 -1816.398438 1552.304688 -1879.894531 1454.765625 -1924.0625 C 1357.234375 -1968.226562 1246.816406 -1990.3125 1123.515625 -1990.3125 Z M 772.9375 -1990.3125 "/></g></g></g><g clip-path="url(#04129d8547)"><path fill="#fbfaf9" d="M 63.871094 895.054688 L 4497.558594 895.054688 L 4497.558594 1361.757812 L 63.871094 1361.757812 Z M 63.871094 895.054688 " fill-opacity="1" fill-rule="nonzero"/></g><g fill="#000000" fill-opacity="1"><g transform="translate(266.64772, 1216.080631)"><g><path d="M 85.1875 -148.96875 C 95.644531 -148.96875 105.851562 -146.953125 115.8125 -142.921875 C 125.769531 -138.898438 134.347656 -133.285156 141.546875 -126.078125 L 126.9375 -107.859375 C 121.5625 -113.648438 115.203125 -118.238281 107.859375 -121.625 C 100.515625 -125.019531 93.097656 -126.71875 85.609375 -126.71875 C 70.773438 -126.71875 58.238281 -121.664062 48 -111.5625 C 37.757812 -101.46875 32.640625 -89.144531 32.640625 -74.59375 C 32.640625 -59.894531 37.757812 -47.492188 48 -37.390625 C 58.238281 -27.296875 70.773438 -22.25 85.609375 -22.25 C 101.003906 -22.25 114.78125 -28.113281 126.9375 -39.84375 L 141.765625 -23.3125 C 134.140625 -15.820312 125.238281 -9.882812 115.0625 -5.5 C 104.894531 -1.125 94.65625 1.0625 84.34375 1.0625 C 62.582031 1.0625 44.285156 -6.175781 29.453125 -20.65625 C 14.617188 -35.132812 7.203125 -53.039062 7.203125 -74.375 C 7.203125 -95.425781 14.722656 -113.117188 29.765625 -127.453125 C 44.816406 -141.796875 63.289062 -148.96875 85.1875 -148.96875 Z M 85.1875 -148.96875 "/></g></g></g><g fill="#000000" fill-opacity="1"><g transform="translate(583.868396, 1216.080631)"><g><path d="M 44.5 -22.671875 L 108.703125 -22.671875 L 108.703125 0 L 19.5 0 L 19.5 -148.328125 L 44.5 -148.328125 Z M 44.5 -22.671875 "/></g></g></g><g fill="#000000" fill-opacity="1"><g transform="translate(866.549353, 1216.080631)"><g><path d="M 145.578125 -148.328125 L 145.578125 -61.453125 C 145.578125 -42.097656 139.851562 -26.835938 128.40625 -15.671875 C 116.96875 -4.515625 101.21875 1.0625 81.15625 1.0625 C 61.09375 1.0625 45.304688 -4.515625 33.796875 -15.671875 C 22.285156 -26.835938 16.53125 -42.097656 16.53125 -61.453125 L 16.53125 -148.328125 L 41.53125 -148.328125 L 41.53125 -61.453125 C 41.53125 -49.023438 45.097656 -39.242188 52.234375 -32.109375 C 59.367188 -24.972656 69.082031 -21.40625 81.375 -21.40625 C 93.519531 -21.40625 103.085938 -24.9375 110.078125 -32 C 117.078125 -39.0625 120.578125 -48.878906 120.578125 -61.453125 L 120.578125 -148.328125 Z M 145.578125 -148.328125 "/></g></g></g><g fill="#000000" fill-opacity="1"><g transform="translate(1197.967413, 1216.080631)"><g><path d="M 19.5 -148.328125 L 83.921875 -148.328125 C 99.316406 -148.328125 111.460938 -145.039062 120.359375 -138.46875 C 129.265625 -131.90625 133.71875 -122.832031 133.71875 -111.25 C 133.71875 -102.914062 131.382812 -95.816406 126.71875 -89.953125 C 122.0625 -84.085938 115.703125 -80.164062 107.640625 -78.1875 C 117.535156 -76.5 125.304688 -72.332031 130.953125 -65.6875 C 136.609375 -59.050781 139.4375 -50.71875 139.4375 -40.6875 C 139.4375 -27.96875 134.628906 -18.003906 125.015625 -10.796875 C 115.410156 -3.597656 102.203125 0 85.390625 0 L 19.5 0 Z M 44.5 -126.078125 L 44.5 -86.875 L 82.640625 -86.875 C 90.554688 -86.875 96.773438 -88.640625 101.296875 -92.171875 C 105.816406 -95.710938 108.078125 -100.585938 108.078125 -106.796875 C 108.078125 -113.015625 105.847656 -117.78125 101.390625 -121.09375 C 96.941406 -124.414062 90.691406 -126.078125 82.640625 -126.078125 Z M 44.5 -64.84375 L 44.5 -22.25 L 82.640625 -22.25 C 92.535156 -22.25 100.203125 -24.117188 105.640625 -27.859375 C 111.078125 -31.609375 113.796875 -36.941406 113.796875 -43.859375 C 113.796875 -50.359375 111.039062 -55.476562 105.53125 -59.21875 C 100.019531 -62.96875 92.390625 -64.84375 82.640625 -64.84375 Z M 44.5 -64.84375 "/></g></g></g><g fill="#000000" fill-opacity="1"><g transform="translate(1517.09522, 1216.080631)"><g/></g></g><g fill="#000000" fill-opacity="1"><g transform="translate(1741.291618, 1216.080631)"><g><path d="M 19.5 -148.328125 L 80.3125 -148.328125 C 102.488281 -148.328125 120.816406 -141.332031 135.296875 -127.34375 C 149.773438 -113.363281 157.015625 -95.632812 157.015625 -74.15625 C 157.015625 -52.6875 149.738281 -34.957031 135.1875 -20.96875 C 120.644531 -6.988281 102.140625 0 79.671875 0 L 19.5 0 Z M 44.5 -125.875 L 44.5 -22.46875 L 80.953125 -22.46875 C 95.503906 -22.46875 107.617188 -27.304688 117.296875 -36.984375 C 126.972656 -46.660156 131.8125 -58.984375 131.8125 -73.953125 C 131.8125 -88.929688 126.828125 -101.328125 116.859375 -111.140625 C 106.898438 -120.960938 94.578125 -125.875 79.890625 -125.875 Z M 44.5 -125.875 "/></g></g></g><g fill="#000000" fill-opacity="1"><g transform="translate(2075.040581, 1216.080631)"><g><path d="M 44.5 0 L 19.5 0 L 19.5 -148.328125 L 44.5 -148.328125 Z M 44.5 0 "/></g></g></g><g fill="#000000" fill-opacity="1"><g transform="translate(2308.560691, 1216.080631)"><g><path d="M 113.578125 0 L 86.453125 -44.921875 C 85.046875 -44.785156 82.785156 -44.71875 79.671875 -44.71875 L 44.5 -44.71875 L 44.5 0 L 19.5 0 L 19.5 -148.328125 L 79.671875 -148.328125 C 98.609375 -148.328125 113.300781 -143.910156 123.75 -135.078125 C 134.207031 -126.253906 139.4375 -113.789062 139.4375 -97.6875 C 139.4375 -85.820312 136.785156 -75.789062 131.484375 -67.59375 C 126.191406 -59.40625 118.597656 -53.40625 108.703125 -49.59375 L 141.984375 0 Z M 44.5 -67.171875 L 79.671875 -67.171875 C 103.691406 -67.171875 115.703125 -77.128906 115.703125 -97.046875 C 115.703125 -116.265625 103.691406 -125.875 79.671875 -125.875 L 44.5 -125.875 Z M 44.5 -67.171875 "/></g></g></g><g fill="#000000" fill-opacity="1"><g transform="translate(2631.290781, 1216.080631)"><g><path d="M 125.453125 -125.875 L 44.5 -125.875 L 44.5 -85.828125 L 116.96875 -85.828125 L 116.96875 -63.359375 L 44.5 -63.359375 L 44.5 -22.46875 L 127.984375 -22.46875 L 127.984375 0 L 19.5 0 L 19.5 -148.328125 L 125.453125 -148.328125 Z M 125.453125 -125.875 "/></g></g></g><g fill="#000000" fill-opacity="1"><g transform="translate(2939.823501, 1216.080631)"><g><path d="M 85.1875 -148.96875 C 95.644531 -148.96875 105.851562 -146.953125 115.8125 -142.921875 C 125.769531 -138.898438 134.347656 -133.285156 141.546875 -126.078125 L 126.9375 -107.859375 C 121.5625 -113.648438 115.203125 -118.238281 107.859375 -121.625 C 100.515625 -125.019531 93.097656 -126.71875 85.609375 -126.71875 C 70.773438 -126.71875 58.238281 -121.664062 48 -111.5625 C 37.757812 -101.46875 32.640625 -89.144531 32.640625 -74.59375 C 32.640625 -59.894531 37.757812 -47.492188 48 -37.390625 C 58.238281 -27.296875 70.773438 -22.25 85.609375 -22.25 C 101.003906 -22.25 114.78125 -28.113281 126.9375 -39.84375 L 141.765625 -23.3125 C 134.140625 -15.820312 125.238281 -9.882812 115.0625 -5.5 C 104.894531 -1.125 94.65625 1.0625 84.34375 1.0625 C 62.582031 1.0625 44.285156 -6.175781 29.453125 -20.65625 C 14.617188 -35.132812 7.203125 -53.039062 7.203125 -74.375 C 7.203125 -95.425781 14.722656 -113.117188 29.765625 -127.453125 C 44.816406 -141.796875 63.289062 -148.96875 85.1875 -148.96875 Z M 85.1875 -148.96875 "/></g></g></g><g fill="#000000" fill-opacity="1"><g transform="translate(3257.0442, 1216.080631)"><g><path d="M 120.78125 -125.875 L 73.75 -125.875 L 73.75 0 L 48.734375 0 L 48.734375 -125.875 L 1.90625 -125.875 L 1.90625 -148.328125 L 120.78125 -148.328125 Z M 120.78125 -125.875 "/></g></g></g><g fill="#000000" fill-opacity="1"><g transform="translate(3549.260693, 1216.080631)"><g><path d="M 29.875 -127.453125 C 44.988281 -141.796875 63.632812 -148.96875 85.8125 -148.96875 C 108 -148.96875 126.648438 -141.796875 141.765625 -127.453125 C 156.878906 -113.117188 164.4375 -95.351562 164.4375 -74.15625 C 164.4375 -52.96875 156.878906 -35.132812 141.765625 -20.65625 C 126.648438 -6.175781 108 1.0625 85.8125 1.0625 C 63.632812 1.0625 44.988281 -6.175781 29.875 -20.65625 C 14.757812 -35.132812 7.203125 -52.96875 7.203125 -74.15625 C 7.203125 -95.351562 14.757812 -113.117188 29.875 -127.453125 Z M 86.03125 -126.515625 C 71.34375 -126.515625 58.769531 -121.460938 48.3125 -111.359375 C 37.863281 -101.253906 32.640625 -88.851562 32.640625 -74.15625 C 32.640625 -59.46875 37.898438 -47.003906 48.421875 -36.765625 C 58.941406 -26.523438 71.476562 -21.40625 86.03125 -21.40625 C 100.582031 -21.40625 113.015625 -26.523438 123.328125 -36.765625 C 133.640625 -47.003906 138.796875 -59.46875 138.796875 -74.15625 C 138.796875 -88.851562 133.640625 -101.253906 123.328125 -111.359375 C 113.015625 -121.460938 100.582031 -126.515625 86.03125 -126.515625 Z M 86.03125 -126.515625 "/></g></g></g><g fill="#000000" fill-opacity="1"><g transform="translate(3890.426071, 1216.080631)"><g><path d="M 113.578125 0 L 86.453125 -44.921875 C 85.046875 -44.785156 82.785156 -44.71875 79.671875 -44.71875 L 44.5 -44.71875 L 44.5 0 L 19.5 0 L 19.5 -148.328125 L 79.671875 -148.328125 C 98.609375 -148.328125 113.300781 -143.910156 123.75 -135.078125 C 134.207031 -126.253906 139.4375 -113.789062 139.4375 -97.6875 C 139.4375 -85.820312 136.785156 -75.789062 131.484375 -67.59375 C 126.191406 -59.40625 118.597656 -53.40625 108.703125 -49.59375 L 141.984375 0 Z M 44.5 -67.171875 L 79.671875 -67.171875 C 103.691406 -67.171875 115.703125 -77.128906 115.703125 -97.046875 C 115.703125 -116.265625 103.691406 -125.875 79.671875 -125.875 L 44.5 -125.875 Z M 44.5 -67.171875 "/></g></g></g><g fill="#000000" fill-opacity="1"><g transform="translate(4213.156161, 1216.080631)"><g><path d="M 80.3125 -49.375 L 80.3125 0 L 55.515625 0 L 55.515625 -48.53125 L 0.21875 -148.328125 L 25.421875 -148.328125 L 67.8125 -76.078125 L 109.34375 -148.328125 L 134.765625 -148.328125 Z M 80.3125 -49.375 "/></g></g></g></svg>